<svg width="140" height="107" viewBox="0 0 140 107" fill="none" xmlns="http://www.w3.org/2000/svg">
<path d="M2 52.5C1.17157 52.5 0.5 53.1716 0.5 54C0.5 54.8284 1.17157 55.5 2 55.5V52.5ZM91.0607 55.0607C91.6464 54.4749 91.6464 53.5251 91.0607 52.9393L81.5147 43.3934C80.9289 42.8076 79.9792 42.8076 79.3934 43.3934C78.8076 43.9792 78.8076 44.9289 79.3934 45.5147L87.8787 54L79.3934 62.4853C78.8076 63.0711 78.8076 64.0208 79.3934 64.6066C79.9792 65.1924 80.9289 65.1924 81.5147 64.6066L91.0607 55.0607ZM2 55.5H90V52.5H2V55.5Z" fill="white"/>
<path d="M54.4705 35.008C58.5413 27.9572 64.8248 22.4467 72.3466 19.3311C79.8684 16.2154 88.2081 15.6688 96.0722 17.776C103.936 19.8832 110.885 24.5264 115.842 30.9855C120.798 37.4446 123.484 45.3586 123.484 53.5002C123.484 61.6417 120.798 69.5557 115.842 76.0148C110.885 82.4739 103.936 87.1172 96.0722 89.2243C88.2081 91.3315 79.8684 90.7849 72.3466 87.6693C64.8248 84.5537 58.5413 79.0431 54.4705 71.9924" stroke="white" stroke-width="3"/>
</svg>
