<svg width="34" height="34" viewBox="0 0 34 34" fill="none" xmlns="http://www.w3.org/2000/svg">
<path fill-rule="evenodd" clip-rule="evenodd" d="M17 0C7.61116 0 0 7.61116 0 17C0 26.3888 7.61116 34 17 34C26.3888 34 34 26.3888 34 17C34 7.61116 26.3888 0 17 0ZM13.2623 7.98801C14.2294 7.944 14.5385 7.93323 17.0009 7.93323H16.998C19.4612 7.93323 19.7691 7.944 20.7362 7.98801C21.7014 8.03221 22.3606 8.18503 22.9386 8.40924C23.5355 8.64063 24.0399 8.95041 24.5442 9.45475C25.0485 9.95871 25.3583 10.4646 25.5907 11.0609C25.8136 11.6374 25.9666 12.2962 26.0119 13.2615C26.0553 14.2286 26.0667 14.5376 26.0667 17C26.0667 19.4624 26.0553 19.7706 26.0119 20.7378C25.9666 21.7026 25.8136 22.3617 25.5907 22.9383C25.3583 23.5345 25.0485 24.0403 24.5442 24.5443C24.0404 25.0486 23.5353 25.3592 22.9392 25.5908C22.3623 25.815 21.7027 25.9678 20.7375 26.012C19.7704 26.056 19.4623 26.0668 16.9997 26.0668C14.5375 26.0668 14.2287 26.056 13.2616 26.012C12.2965 25.9678 11.6375 25.815 11.0606 25.5908C10.4647 25.3592 9.95881 25.0486 9.45504 24.5443C8.95089 24.0403 8.64111 23.5345 8.40934 22.9382C8.18532 22.3617 8.03251 21.7028 7.98812 20.7376C7.94429 19.7705 7.93334 19.4624 7.93334 17C7.93334 14.5376 7.94467 14.2284 7.98793 13.2613C8.03137 12.2964 8.18437 11.6374 8.40915 11.0607C8.64149 10.4646 8.95127 9.95871 9.45561 9.45475C9.95957 8.9506 10.4654 8.64082 11.0617 8.40924C11.6382 8.18503 12.2971 8.03221 13.2623 7.98801Z" fill="white"/>
<path fill-rule="evenodd" clip-rule="evenodd" d="M16.1875 9.56721C16.3454 9.56696 16.5153 9.56704 16.6987 9.56712L17.0008 9.56721C19.4217 9.56721 19.7086 9.5759 20.6646 9.61934C21.5486 9.65976 22.0284 9.80748 22.348 9.93158C22.7711 10.0959 23.0727 10.2924 23.3899 10.6097C23.7072 10.927 23.9037 11.2293 24.0684 11.6524C24.1925 11.9716 24.3404 12.4514 24.3806 13.3354C24.4241 14.2912 24.4335 14.5783 24.4335 16.998C24.4335 19.4177 24.4241 19.7048 24.3806 20.6606C24.3402 21.5446 24.1925 22.0244 24.0684 22.3436C23.9041 22.7667 23.7072 23.068 23.3899 23.3851C23.0726 23.7025 22.7713 23.8989 22.348 24.0633C22.0287 24.1879 21.5486 24.3353 20.6646 24.3757C19.7088 24.4191 19.4217 24.4286 17.0008 24.4286C14.5798 24.4286 14.2929 24.4191 13.3371 24.3757C12.4531 24.3349 11.9733 24.1872 11.6535 24.0631C11.2304 23.8987 10.9282 23.7023 10.6109 23.385C10.2935 23.0676 10.0971 22.7661 9.93236 22.3428C9.80826 22.0236 9.66036 21.5438 9.62013 20.6598C9.57668 19.704 9.56799 19.4169 9.56799 16.9957C9.56799 14.5745 9.57668 14.2889 9.62013 13.3331C9.66055 12.4491 9.80826 11.9693 9.93236 11.6497C10.0967 11.2266 10.2935 10.9244 10.6109 10.6071C10.9282 10.2897 11.2304 10.0933 11.6535 9.92856C11.9731 9.80389 12.4531 9.65655 13.3371 9.61594C14.1735 9.57816 14.4977 9.56683 16.1875 9.56494V9.56721ZM21.8406 11.0727C21.2399 11.0727 20.7526 11.5595 20.7526 12.1603C20.7526 12.761 21.2399 13.2483 21.8406 13.2483C22.4413 13.2483 22.9286 12.761 22.9286 12.1603C22.9286 11.5597 22.4413 11.0723 21.8406 11.0723V11.0727ZM12.3447 17C12.3447 14.4286 14.4295 12.3438 17.0009 12.3438H17.0007C19.572 12.3438 21.6563 14.4286 21.6563 17C21.6563 19.5714 19.5722 21.6552 17.0009 21.6552C14.4295 21.6552 12.3447 19.5714 12.3447 17Z" fill="white"/>
<path d="M17.0008 13.978C18.6699 13.978 20.0231 15.3311 20.0231 17.0003C20.0231 18.6693 18.6699 20.0225 17.0008 20.0225C15.3316 20.0225 13.9786 18.6693 13.9786 17.0003C13.9786 15.3311 15.3316 13.978 17.0008 13.978Z" fill="white"/>
</svg>
