<svg width="29" height="28" viewBox="0 0 29 28" fill="none" xmlns="http://www.w3.org/2000/svg">
<path fill-rule="evenodd" clip-rule="evenodd" d="M14.5 0C6.49187 0 0 6.26801 0 14C0 21.732 6.49187 28 14.5 28C22.5081 28 29 21.732 29 14C29 6.26801 22.5081 0 14.5 0ZM14.0961 11.8638L14.0658 11.3794C13.9744 10.1238 14.7757 8.97696 16.0435 8.53209C16.51 8.37398 17.3011 8.35413 17.8185 8.49257C18.0213 8.55186 18.4067 8.74959 18.6805 8.92755L19.1775 9.25384L19.7252 9.08575C20.0294 8.99681 20.4352 8.84849 20.6177 8.74959C20.7902 8.66065 20.9424 8.61124 20.9424 8.64088C20.9424 8.80896 20.5671 9.38231 20.2527 9.69871C19.8266 10.1436 19.9483 10.1831 20.8105 9.88655C21.3277 9.71847 21.3379 9.71847 21.2364 9.90632C21.1755 10.0052 20.8611 10.3512 20.5265 10.6676C19.9585 11.2113 19.928 11.2707 19.928 11.7254C19.928 12.4273 19.5832 13.8906 19.2383 14.6914C18.5994 16.194 17.2302 17.7462 15.861 18.5272C13.9339 19.6246 11.3678 19.9014 9.2075 19.2588C8.48738 19.0413 7.25 18.4877 7.25 18.3888C7.25 18.3592 7.62527 18.3196 8.08168 18.3097C9.03504 18.2899 9.98845 18.0329 10.7999 17.5782L11.3475 17.2618L10.7187 17.0541C9.82622 16.7576 9.02497 16.0754 8.82205 15.4328C8.76124 15.2252 8.78154 15.2153 9.34951 15.2153L9.93779 15.2054L9.44078 14.978C8.85251 14.6914 8.31496 14.2069 8.05125 13.7126C7.85855 13.3567 7.61513 12.457 7.68613 12.3878C7.70641 12.3581 7.9194 12.4174 8.16282 12.4966C8.86266 12.7437 8.95392 12.6844 8.54826 12.2692C7.78755 11.5178 7.55427 10.4006 7.9194 9.34278L8.09183 8.86826L8.76124 9.51086C10.1305 10.8059 11.7431 11.5771 13.5891 11.8045L14.0961 11.8638Z" fill="#BCBCBC"/>
</svg>
