<svg width="28" height="28" viewBox="0 0 28 28" fill="none" xmlns="http://www.w3.org/2000/svg">
<path fill-rule="evenodd" clip-rule="evenodd" d="M14 0C6.26801 0 0 6.26801 0 14C0 21.732 6.26801 28 14 28C21.732 28 28 21.732 28 14C28 6.26801 21.732 0 14 0ZM6.72096 11.5954H9.89363V21.1281H6.72096V11.5954ZM10.1026 8.64656C10.0821 7.7119 9.4136 7 8.32827 7C7.24291 7 6.53334 7.7119 6.53334 8.64656C6.53334 9.56192 7.22194 10.2943 8.28709 10.2943H8.30735C9.4136 10.2943 10.1026 9.56192 10.1026 8.64656ZM17.6827 11.3715C19.7705 11.3715 21.3357 12.7343 21.3357 15.6623L21.3355 21.1281H18.1629V16.028C18.1629 14.747 17.7038 13.8729 16.5553 13.8729C15.6788 13.8729 15.1566 14.4622 14.9274 15.0314C14.8435 15.2354 14.8229 15.5196 14.8229 15.8044V21.1283H11.6498C11.6498 21.1283 11.6916 12.4901 11.6498 11.5956H14.8229V12.9459C15.244 12.2968 15.9981 11.3715 17.6827 11.3715Z" fill="#BCBCBC"/>
</svg>
