<svg width="28" height="28" viewBox="0 0 28 28" fill="none" xmlns="http://www.w3.org/2000/svg">
<path fill-rule="evenodd" clip-rule="evenodd" d="M14 28C6.26801 28 0 21.732 0 14C0 6.26801 6.26801 0 14 0C21.732 0 28 6.26801 28 14C28 21.732 21.732 28 14 28ZM14.1951 13.2143C15.3414 13.2143 20.9151 10.08 20.9151 10.08L20.924 9.52C20.924 8.90178 20.4223 8.4 19.8023 8.4H8.58776C7.96842 8.4 7.46666 8.90178 7.46666 9.52V10.019C7.46666 10.019 13.1014 13.2143 14.1951 13.2143ZM7.47562 11.76C7.47506 11.76 13.1014 14.7543 14.1951 14.7543C15.394 14.7543 20.9151 11.76 20.9151 11.76L20.924 18.48C20.924 19.0983 20.4223 19.6 19.8023 19.6H8.58776C7.96898 19.6 7.46666 19.0983 7.46666 18.48L7.47562 11.76Z" fill="#BCBCBC"/>
</svg>
