<svg width="28" height="28" viewBox="0 0 28 28" fill="none" xmlns="http://www.w3.org/2000/svg">
<path fill-rule="evenodd" clip-rule="evenodd" d="M14 0C6.26801 0 0 6.26801 0 14C0 21.732 6.26801 28 14 28C21.732 28 28 21.732 28 14C28 6.26801 21.732 0 14 0ZM10.9219 6.57836C11.7183 6.54212 11.9729 6.53325 14.0007 6.53325H13.9984C16.0269 6.53325 16.2804 6.54212 17.0769 6.57836C17.8717 6.61476 18.4146 6.74061 18.8906 6.92526C19.3822 7.11581 19.7976 7.37093 20.2129 7.78626C20.6282 8.20129 20.8833 8.61791 21.0747 9.10898C21.2583 9.58374 21.3843 10.1263 21.4216 10.9212C21.4573 11.7177 21.4667 11.9721 21.4667 14C21.4667 16.0279 21.4573 16.2817 21.4216 17.0782C21.3843 17.8727 21.2583 18.4155 21.0747 18.8904C20.8833 19.3814 20.6282 19.7979 20.2129 20.213C19.798 20.6283 19.382 20.884 18.8911 21.0748C18.416 21.2594 17.8728 21.3852 17.0779 21.4216C16.2815 21.4579 16.0278 21.4668 13.9998 21.4668C11.9721 21.4668 11.7178 21.4579 10.9213 21.4216C10.1265 21.3852 9.58382 21.2594 9.10873 21.0748C8.61799 20.884 8.20137 20.6283 7.7865 20.213C7.37132 19.7979 7.11621 19.3814 6.92534 18.8903C6.74085 18.4155 6.61501 17.8729 6.57845 17.078C6.54236 16.2816 6.53334 16.0279 6.53334 14C6.53334 11.9721 6.54267 11.7175 6.5783 10.9211C6.61407 10.1264 6.74007 9.58374 6.92518 9.10881C7.11652 8.61791 7.37163 8.20129 7.78697 7.78626C8.202 7.37108 8.61856 7.11597 9.10964 6.92526C9.5844 6.74061 10.127 6.61476 10.9219 6.57836Z" fill="#BCBCBC"/>
<path fill-rule="evenodd" clip-rule="evenodd" d="M13.3435 8.00183C13.471 8.00163 13.6081 8.00169 13.7562 8.00176L14 8.00183C15.9543 8.00183 16.1859 8.00885 16.9576 8.04392C17.6712 8.07655 18.0585 8.19581 18.3165 8.296C18.658 8.42866 18.9015 8.58731 19.1576 8.84347C19.4137 9.09964 19.5723 9.3437 19.7053 9.68529C19.8055 9.94299 19.9248 10.3303 19.9573 11.044C19.9924 11.8157 20 12.0475 20 14.001C20 15.9545 19.9924 16.1863 19.9573 16.9579C19.9247 17.6716 19.8055 18.059 19.7053 18.3167C19.5726 18.6583 19.4137 18.9015 19.1576 19.1575C18.9014 19.4138 18.6582 19.5724 18.3165 19.7051C18.0588 19.8057 17.6712 19.9247 16.9576 19.9573C16.186 19.9923 15.9543 20 14 20C12.0457 20 11.8141 19.9923 11.0426 19.9573C10.329 19.9244 9.94166 19.8051 9.6835 19.7049C9.34196 19.5722 9.09801 19.4136 8.84188 19.1575C8.58566 18.9012 8.42712 18.6578 8.29413 18.3161C8.19395 18.0584 8.07456 17.671 8.04209 16.9573C8.00701 16.1856 8 15.9539 8 13.9991C8 12.0444 8.00701 11.8138 8.04209 11.0422C8.07472 10.3285 8.19395 9.94113 8.29413 9.68311C8.42679 9.34152 8.58566 9.09754 8.84188 8.84137C9.09801 8.58513 9.34196 8.42657 9.6835 8.29356C9.94149 8.19291 10.329 8.07396 11.0426 8.04117C11.7177 8.01067 11.9794 8.00153 13.3435 8V8.00183ZM17.9069 9.21727C17.422 9.21727 17.0286 9.61028 17.0286 10.0953C17.0286 10.5803 17.422 10.9737 17.9069 10.9737C18.3918 10.9737 18.7852 10.5803 18.7852 10.0953C18.7852 9.61045 18.3918 9.21695 17.9069 9.21695V9.21727ZM10.2415 14.0026C10.2415 11.9266 11.9244 10.2435 14.0001 10.2435H14C16.0756 10.2435 17.7581 11.9266 17.7581 14.0026C17.7581 16.0786 16.0758 17.7609 14.0001 17.7609C11.9244 17.7609 10.2415 16.0786 10.2415 14.0026Z" fill="#BCBCBC"/>
<path d="M13.5 11C14.8806 11 16 12.3431 16 14C16 15.6568 14.8806 17 13.5 17C12.1192 17 11 15.6568 11 14C11 12.3431 12.1192 11 13.5 11Z" fill="#BCBCBC"/>
</svg>
