<svg width="29" height="28" viewBox="0 0 29 28" fill="none" xmlns="http://www.w3.org/2000/svg">
<path fill-rule="evenodd" clip-rule="evenodd" d="M14.5 0C6.49187 0 0 6.26801 0 14C0 21.732 6.49187 28 14.5 28C22.5081 28 29 21.732 29 14C29 6.26801 22.5081 0 14.5 0ZM20.5427 9.18713C21.2081 9.36345 21.7323 9.88293 21.9101 10.5427C22.2334 11.7384 22.2334 14.2333 22.2334 14.2333C22.2334 14.2333 22.2334 16.7281 21.9101 17.924C21.7323 18.5837 21.2081 19.1032 20.5427 19.2796C19.3366 19.6 14.5 19.6 14.5 19.6C14.5 19.6 9.6634 19.6 8.45728 19.2796C7.79178 19.1032 7.26766 18.5837 7.0898 17.924C6.76667 16.7281 6.76667 14.2333 6.76667 14.2333C6.76667 14.2333 6.76667 11.7384 7.0898 10.5427C7.26766 9.88293 7.79178 9.36345 8.45728 9.18713C9.6634 8.86661 14.5 8.86661 14.5 8.86661C14.5 8.86661 19.3366 8.86661 20.5427 9.18713Z" fill="#BCBCBC"/>
<path d="M13 17V12L17 14.5L13 17Z" fill="#BCBCBC"/>
</svg>
