<svg width="269" height="269" viewBox="0 0 269 269" fill="none" xmlns="http://www.w3.org/2000/svg">
<path d="M154 150C154 157.021 151.918 163.885 148.017 169.723C144.116 175.561 138.572 180.111 132.085 182.798C125.598 185.485 118.461 186.188 111.574 184.818C104.688 183.448 98.3625 180.067 93.3977 175.102C88.4329 170.138 85.0519 163.812 83.6821 156.926C82.3123 150.039 83.0154 142.902 85.7023 136.415C88.3892 129.928 92.9393 124.384 98.7773 120.483C104.615 116.582 111.479 114.5 118.5 114.5" stroke="#333333" stroke-width="6" stroke-linecap="round"/>
<path d="M183.885 112.25C193.043 128.113 196.123 146.764 192.549 164.729C188.976 182.694 178.993 198.748 164.462 209.898C149.93 221.049 131.84 226.536 113.562 225.338C95.2844 224.14 78.0655 216.339 65.1135 203.387C52.1614 190.435 44.3596 173.216 43.1617 154.938C41.9637 136.66 47.4512 118.57 58.6018 104.039C69.7524 89.5067 85.8057 79.5242 103.771 75.9507C121.736 72.3773 140.387 75.4566 156.25 84.6151" stroke="#333333" stroke-width="6" stroke-linecap="round"/>
<path d="M223.643 102.197C234.703 126.522 236.986 153.93 230.103 179.75C223.22 205.57 207.598 228.204 185.897 243.797C164.197 259.39 137.761 266.976 111.095 265.262C84.428 263.549 59.1805 252.643 39.6539 234.401C20.1273 216.16 7.52969 191.712 4.00766 165.223C0.48563 138.735 6.25706 111.845 20.3386 89.1347C34.4201 66.4246 55.9404 49.2995 81.2327 40.6775C106.525 32.0556 134.024 32.4701 159.045 41.8505" stroke="#333333" stroke-width="6" stroke-linecap="round"/>
<path d="M117.5 152L188 81.5M188 81.5V45L230.5 3L231.5 38L265.5 39L225.5 80.5L188 81.5Z" stroke="#D20A11" stroke-width="6" stroke-linecap="round" stroke-linejoin="round"/>
</svg>
