<svg width="167" height="145" viewBox="0 0 167 145" fill="none" xmlns="http://www.w3.org/2000/svg">
<path d="M77.1328 144.348H0.667969V85.4609C0.667969 63.7812 5.17969 46.6719 14.2031 34.1328C23.2266 21.5938 38.6953 10.5195 60.6094 0.910156L77.1328 32.1992C63.6562 38.5273 54.3398 44.8555 49.1836 51.1836C44.0273 57.3945 41.1562 64.7773 40.5703 73.332H77.1328V144.348ZM166.254 144.348H89.7891V85.4609C89.7891 63.7812 94.3008 46.6719 103.324 34.1328C112.348 21.5938 127.816 10.5195 149.73 0.910156L166.254 32.1992C152.777 38.5273 143.461 44.8555 138.305 51.1836C133.148 57.3945 130.277 64.7773 129.691 73.332H166.254V144.348Z" fill="#EBEBEB"/>
</svg>
