<svg width="96" height="96" viewBox="0 0 96 96" fill="none" xmlns="http://www.w3.org/2000/svg">
<g filter="url(#filter0_d_2274_700)">
<circle cx="48" cy="44" r="44" fill="#D20A11"/>
</g>
<path d="M30.1257 33.3105C30.078 33.4058 30.0217 33.473 29.9567 33.512C29.896 33.551 29.8223 33.5705 29.7357 33.5705C29.649 33.5705 29.5515 33.538 29.4432 33.473C29.3348 33.4037 29.207 33.3278 29.0597 33.2455C28.9123 33.1632 28.739 33.0895 28.5397 33.0245C28.3447 32.9552 28.1128 32.9205 27.8442 32.9205C27.6015 32.9205 27.3892 32.9508 27.2072 33.0115C27.0295 33.0678 26.8778 33.148 26.7522 33.252C26.6308 33.356 26.5398 33.4817 26.4792 33.629C26.4185 33.772 26.3882 33.9302 26.3882 34.1035C26.3882 34.3245 26.4488 34.5087 26.5702 34.656C26.6958 34.8033 26.8605 34.929 27.0642 35.033C27.2678 35.137 27.4997 35.2302 27.7597 35.3125C28.0197 35.3948 28.284 35.4837 28.5527 35.579C28.8257 35.67 29.0922 35.7783 29.3522 35.904C29.6122 36.0253 29.844 36.1813 30.0477 36.372C30.2513 36.5583 30.4138 36.788 30.5352 37.061C30.6608 37.334 30.7237 37.6655 30.7237 38.0555C30.7237 38.4802 30.65 38.8788 30.5027 39.2515C30.3597 39.6198 30.1473 39.9427 29.8657 40.22C29.5883 40.493 29.2482 40.7097 28.8452 40.87C28.4422 41.026 27.9807 41.104 27.4607 41.104C27.1617 41.104 26.867 41.0737 26.5767 41.013C26.2863 40.9567 26.0068 40.8743 25.7382 40.766C25.4738 40.6577 25.2247 40.5277 24.9907 40.376C24.761 40.2243 24.5552 40.0553 24.3732 39.869L24.8802 39.0305C24.9278 38.9698 24.9842 38.92 25.0492 38.881C25.1185 38.8377 25.1943 38.816 25.2767 38.816C25.385 38.816 25.502 38.8615 25.6277 38.9525C25.7533 39.0392 25.9007 39.1367 26.0697 39.245C26.243 39.3533 26.4445 39.453 26.6742 39.544C26.9082 39.6307 27.1877 39.674 27.5127 39.674C28.011 39.674 28.3967 39.557 28.6697 39.323C28.9427 39.0847 29.0792 38.7445 29.0792 38.3025C29.0792 38.0555 29.0163 37.854 28.8907 37.698C28.7693 37.542 28.6068 37.412 28.4032 37.308C28.1995 37.1997 27.9677 37.1087 27.7077 37.035C27.4477 36.9613 27.1833 36.8812 26.9147 36.7945C26.646 36.7078 26.3817 36.6038 26.1217 36.4825C25.8617 36.3612 25.6298 36.203 25.4262 36.008C25.2225 35.813 25.0578 35.5703 24.9322 35.28C24.8108 34.9853 24.7502 34.6235 24.7502 34.1945C24.7502 33.8522 24.8173 33.5185 24.9517 33.1935C25.0903 32.8685 25.2897 32.5803 25.5497 32.329C25.814 32.0777 26.1368 31.8762 26.5182 31.7245C26.8995 31.5728 27.335 31.497 27.8247 31.497C28.3793 31.497 28.8907 31.5837 29.3587 31.757C29.8267 31.9303 30.2253 32.173 30.5547 32.485L30.1257 33.3105ZM38.5189 38.7835C38.6142 38.7835 38.6966 38.8203 38.7659 38.894L39.4549 39.6415C39.0736 40.1138 38.6034 40.4757 38.0444 40.727C37.4897 40.9783 36.8224 41.104 36.0424 41.104C35.3447 41.104 34.7164 40.9848 34.1574 40.7465C33.6027 40.5082 33.1282 40.1767 32.7339 39.752C32.3396 39.3273 32.0362 38.8203 31.8239 38.231C31.6159 37.6417 31.5119 36.9982 31.5119 36.3005C31.5119 35.5942 31.6289 34.9485 31.8629 34.3635C32.0969 33.7742 32.4262 33.2672 32.8509 32.8425C33.2756 32.4178 33.7826 32.0885 34.3719 31.8545C34.9656 31.6162 35.6199 31.497 36.3349 31.497C37.0326 31.497 37.6414 31.6097 38.1614 31.835C38.6857 32.056 39.1342 32.3507 39.5069 32.719L38.9219 33.5315C38.8872 33.5835 38.8417 33.629 38.7854 33.668C38.7334 33.707 38.6597 33.7265 38.5644 33.7265C38.4647 33.7265 38.3629 33.6875 38.2589 33.6095C38.1549 33.5315 38.0227 33.447 37.8624 33.356C37.7021 33.265 37.4984 33.1805 37.2514 33.1025C37.0087 33.0245 36.6989 32.9855 36.3219 32.9855C35.8799 32.9855 35.4726 33.0635 35.0999 33.2195C34.7316 33.3712 34.4131 33.59 34.1444 33.876C33.8801 34.162 33.6721 34.5108 33.5204 34.9225C33.3731 35.3298 33.2994 35.7892 33.2994 36.3005C33.2994 36.8292 33.3731 37.2993 33.5204 37.711C33.6721 38.1227 33.8757 38.4693 34.1314 38.751C34.3871 39.0327 34.6882 39.2493 35.0349 39.401C35.3816 39.5483 35.7542 39.622 36.1529 39.622C36.3912 39.622 36.6057 39.609 36.7964 39.583C36.9914 39.557 37.1691 39.5158 37.3294 39.4595C37.4941 39.4032 37.6479 39.3317 37.7909 39.245C37.9382 39.154 38.0834 39.0435 38.2264 38.9135C38.2697 38.8745 38.3152 38.8442 38.3629 38.8225C38.4106 38.7965 38.4626 38.7835 38.5189 38.7835ZM42.5866 37.3275V41H40.8381V31.601H43.7046C44.3459 31.601 44.8941 31.6682 45.3491 31.8025C45.8084 31.9325 46.1832 32.1167 46.4736 32.355C46.7682 32.5933 46.9827 32.8793 47.1171 33.213C47.2557 33.5423 47.3251 33.9063 47.3251 34.305C47.3251 34.6213 47.2774 34.9203 47.1821 35.202C47.0911 35.4837 46.9567 35.7393 46.7791 35.969C46.6057 36.1987 46.3891 36.4002 46.1291 36.5735C45.8734 36.7468 45.5809 36.8855 45.2516 36.9895C45.4726 37.1152 45.6632 37.295 45.8236 37.529L48.1766 41H46.6036C46.4519 41 46.3219 40.9697 46.2136 40.909C46.1096 40.8483 46.0207 40.7617 45.9471 40.649L43.9711 37.6395C43.8974 37.5268 43.8151 37.4467 43.7241 37.399C43.6374 37.3513 43.5074 37.3275 43.3341 37.3275H42.5866ZM42.5866 36.073H43.6786C44.0079 36.073 44.2939 36.0318 44.5366 35.9495C44.7836 35.8672 44.9851 35.7545 45.1411 35.6115C45.3014 35.4642 45.4206 35.2908 45.4986 35.0915C45.5766 34.8922 45.6156 34.6733 45.6156 34.435C45.6156 33.9583 45.4574 33.5922 45.1411 33.3365C44.8291 33.0808 44.3502 32.953 43.7046 32.953H42.5866V36.073ZM57.9962 36.3005C57.9962 36.9895 57.8814 37.6287 57.6517 38.218C57.4221 38.803 57.0992 39.31 56.6832 39.739C56.2672 40.168 55.7667 40.5038 55.1817 40.7465C54.5967 40.9848 53.9489 41.104 53.2382 41.104C52.5276 41.104 51.8776 40.9848 51.2882 40.7465C50.7032 40.5038 50.2006 40.168 49.7802 39.739C49.3642 39.31 49.0414 38.803 48.8117 38.218C48.5821 37.6287 48.4672 36.9895 48.4672 36.3005C48.4672 35.6115 48.5821 34.9745 48.8117 34.3895C49.0414 33.8002 49.3642 33.291 49.7802 32.862C50.2006 32.433 50.7032 32.0993 51.2882 31.861C51.8776 31.6183 52.5276 31.497 53.2382 31.497C53.9489 31.497 54.5967 31.6183 55.1817 31.861C55.7667 32.1037 56.2672 32.4395 56.6832 32.8685C57.0992 33.2932 57.4221 33.8002 57.6517 34.3895C57.8814 34.9745 57.9962 35.6115 57.9962 36.3005ZM56.2022 36.3005C56.2022 35.7848 56.1329 35.3233 55.9942 34.916C55.8599 34.5043 55.6649 34.1555 55.4092 33.8695C55.1536 33.5835 54.8416 33.3647 54.4732 33.213C54.1092 33.0613 53.6976 32.9855 53.2382 32.9855C52.7789 32.9855 52.3651 33.0613 51.9967 33.213C51.6284 33.3647 51.3142 33.5835 51.0542 33.8695C50.7986 34.1555 50.6014 34.5043 50.4627 34.916C50.3241 35.3233 50.2547 35.7848 50.2547 36.3005C50.2547 36.8162 50.3241 37.2798 50.4627 37.6915C50.6014 38.0988 50.7986 38.4455 51.0542 38.7315C51.3142 39.0132 51.6284 39.2298 51.9967 39.3815C52.3651 39.5332 52.7789 39.609 53.2382 39.609C53.6976 39.609 54.1092 39.5332 54.4732 39.3815C54.8416 39.2298 55.1536 39.0132 55.4092 38.7315C55.6649 38.4455 55.8599 38.0988 55.9942 37.6915C56.1329 37.2798 56.2022 36.8162 56.2022 36.3005ZM61.1267 39.557H64.8902V41H59.3782V31.601H61.1267V39.557ZM67.8425 39.557H71.606V41H66.094V31.601H67.8425V39.557ZM35.5225 52.3005C35.5225 52.9895 35.4077 53.6222 35.178 54.1985C34.9484 54.7748 34.6255 55.271 34.2095 55.687C33.7935 56.103 33.293 56.4258 32.708 56.6555C32.123 56.8852 31.4752 57 30.7645 57H27.1765V47.601H30.7645C31.4752 47.601 32.123 47.718 32.708 47.952C33.293 48.1817 33.7935 48.5045 34.2095 48.9205C34.6255 49.3322 34.9484 49.8262 35.178 50.4025C35.4077 50.9788 35.5225 51.6115 35.5225 52.3005ZM33.735 52.3005C33.735 51.7848 33.6657 51.3233 33.527 50.916C33.3884 50.5043 33.1912 50.1577 32.9355 49.876C32.6799 49.59 32.3679 49.3712 31.9995 49.2195C31.6355 49.0678 31.2239 48.992 30.7645 48.992H28.938V55.609H30.7645C31.2239 55.609 31.6355 55.5332 31.9995 55.3815C32.3679 55.2298 32.6799 55.0132 32.9355 54.7315C33.1912 54.4455 33.3884 54.0988 33.527 53.6915C33.6657 53.2798 33.735 52.8162 33.735 52.3005ZM45.904 52.3005C45.904 52.9895 45.7891 53.6287 45.5595 54.218C45.3298 54.803 45.007 55.31 44.591 55.739C44.175 56.168 43.6745 56.5038 43.0895 56.7465C42.5045 56.9848 41.8566 57.104 41.146 57.104C40.4353 57.104 39.7853 56.9848 39.196 56.7465C38.611 56.5038 38.1083 56.168 37.688 55.739C37.272 55.31 36.9491 54.803 36.7195 54.218C36.4898 53.6287 36.375 52.9895 36.375 52.3005C36.375 51.6115 36.4898 50.9745 36.7195 50.3895C36.9491 49.8002 37.272 49.291 37.688 48.862C38.1083 48.433 38.611 48.0993 39.196 47.861C39.7853 47.6183 40.4353 47.497 41.146 47.497C41.8566 47.497 42.5045 47.6183 43.0895 47.861C43.6745 48.1037 44.175 48.4395 44.591 48.8685C45.007 49.2932 45.3298 49.8002 45.5595 50.3895C45.7891 50.9745 45.904 51.6115 45.904 52.3005ZM44.11 52.3005C44.11 51.7848 44.0406 51.3233 43.902 50.916C43.7676 50.5043 43.5726 50.1555 43.317 49.8695C43.0613 49.5835 42.7493 49.3647 42.381 49.213C42.017 49.0613 41.6053 48.9855 41.146 48.9855C40.6866 48.9855 40.2728 49.0613 39.9045 49.213C39.5361 49.3647 39.222 49.5835 38.962 49.8695C38.7063 50.1555 38.5091 50.5043 38.3705 50.916C38.2318 51.3233 38.1625 51.7848 38.1625 52.3005C38.1625 52.8162 38.2318 53.2798 38.3705 53.6915C38.5091 54.0988 38.7063 54.4455 38.962 54.7315C39.222 55.0132 39.5361 55.2298 39.9045 55.3815C40.2728 55.5332 40.6866 55.609 41.146 55.609C41.6053 55.609 42.017 55.5332 42.381 55.3815C42.7493 55.2298 43.0613 55.0132 43.317 54.7315C43.5726 54.4455 43.7676 54.0988 43.902 53.6915C44.0406 53.2798 44.11 52.8162 44.11 52.3005ZM46.4149 47.601H47.8839C48.0356 47.601 48.1612 47.6378 48.2609 47.7115C48.3649 47.7808 48.4342 47.8762 48.4689 47.9975L50.0679 53.62C50.1069 53.7587 50.1416 53.9103 50.1719 54.075C50.2066 54.2353 50.2391 54.4065 50.2694 54.5885C50.3041 54.4065 50.3409 54.2353 50.3799 54.075C50.4232 53.9103 50.4687 53.7587 50.5164 53.62L52.3624 47.9975C52.3971 47.8978 52.4642 47.8068 52.5639 47.7245C52.6679 47.6422 52.7936 47.601 52.9409 47.601H53.4544C53.6061 47.601 53.7317 47.6378 53.8314 47.7115C53.9311 47.7808 54.0004 47.8762 54.0394 47.9975L55.8724 53.62C55.9677 53.8973 56.0501 54.205 56.1194 54.543C56.1497 54.374 56.1801 54.2115 56.2104 54.0555C56.2451 53.8995 56.2797 53.7543 56.3144 53.62L57.9134 47.9975C57.9437 47.8892 58.0109 47.796 58.1149 47.718C58.2189 47.64 58.3446 47.601 58.4919 47.601H59.8634L56.9449 57H55.3654L53.3114 50.578C53.2854 50.4957 53.2572 50.4068 53.2269 50.3115C53.2009 50.2162 53.1749 50.1143 53.1489 50.006C53.1229 50.1143 53.0947 50.2162 53.0644 50.3115C53.0384 50.4068 53.0124 50.4957 52.9864 50.578L50.9129 57H49.3334L46.4149 47.601ZM61.8118 47.601C61.8898 47.601 61.9548 47.6053 62.0068 47.614C62.0588 47.6183 62.1043 47.6313 62.1433 47.653C62.1866 47.6703 62.2278 47.6985 62.2668 47.7375C62.3058 47.7722 62.3491 47.8198 62.3968 47.8805L67.3303 54.166C67.313 54.0143 67.3 53.867 67.2913 53.724C67.287 53.5767 67.2848 53.4402 67.2848 53.3145V47.601H68.8253V57H67.9218C67.7831 57 67.6683 56.9783 67.5773 56.935C67.4863 56.8917 67.3975 56.8137 67.3108 56.701L62.3968 50.4415C62.4098 50.5802 62.4185 50.7188 62.4228 50.8575C62.4315 50.9918 62.4358 51.1153 62.4358 51.228V57H60.8953V47.601H61.8118Z" fill="#F6F6F6"/>
<defs>
<filter id="filter0_d_2274_700" x="0" y="0" width="96" height="96" filterUnits="userSpaceOnUse" color-interpolation-filters="sRGB">
<feFlood flood-opacity="0" result="BackgroundImageFix"/>
<feColorMatrix in="SourceAlpha" type="matrix" values="0 0 0 0 0 0 0 0 0 0 0 0 0 0 0 0 0 0 127 0" result="hardAlpha"/>
<feOffset dy="4"/>
<feGaussianBlur stdDeviation="2"/>
<feComposite in2="hardAlpha" operator="out"/>
<feColorMatrix type="matrix" values="0 0 0 0 0 0 0 0 0 0 0 0 0 0 0 0 0 0 0.25 0"/>
<feBlend mode="normal" in2="BackgroundImageFix" result="effect1_dropShadow_2274_700"/>
<feBlend mode="normal" in="SourceGraphic" in2="effect1_dropShadow_2274_700" result="shape"/>
</filter>
</defs>
</svg>
